<svg xmlns="http://www.w3.org/2000/svg" version="1.1" xmlns:xlink="http://www.w3.org/1999/xlink" xmlns:svgjs="http://svgjs.dev/svgjs" width="1000" height="351" viewBox="0 0 1000 351"><g transform="matrix(1,0,0,1,-0.6060605867326103,0.444848227531196)"><svg viewBox="0 0 396 139" data-background-color="#ffffff" preserveAspectRatio="xMidYMid meet" height="351" width="1000" xmlns="http://www.w3.org/2000/svg" xmlns:xlink="http://www.w3.org/1999/xlink"><g id="tight-bounds" transform="matrix(1,0,0,1,0.24000000765386176,-0.17616496759782763)"><svg viewBox="0 0 395.52 139.35232993519563" height="139.35232993519563" width="395.52"><g><svg viewBox="0 0 693.7630074226879 244.43135999999998" height="139.35232993519563" width="395.52"><g transform="matrix(1,0,0,1,0,8.244654943052396)"><svg viewBox="0 0 395.52 227.9420501138952" height="227.9420501138952" width="395.52"><g id="textblocktransform"><svg viewBox="0 0 395.52 227.9420501138952" height="227.9420501138952" width="395.52" id="textblock"><g><svg viewBox="0 0 395.52 227.9420501138952" height="227.9420501138952" width="395.52"><g transform="matrix(1,0,0,1,0,0)"><svg width="395.52" viewBox="0.05000000447034836 -37.95000076293945 65.8499984741211 37.95000076293945" height="227.9420501138952" data-palette-color="#31c48d"><path d="M32.3 0L26.9 0Q26.65-0.55 26.2-1.6 25.75-2.65 25.18-4.03 24.6-5.4 23.93-7.03 23.25-8.65 22.55-10.4L22.55-10.4 9.75-10.4 5.45 0 0.05 0 16.2-37.95Q16.5-37.25 17.28-35.4 18.05-33.55 19.13-30.98 20.2-28.4 21.53-25.28 22.85-22.15 24.23-18.95 25.6-15.75 26.93-12.65 28.25-9.55 29.35-6.95 30.45-4.35 31.23-2.53 32-0.7 32.3 0L32.3 0ZM15.65-24.7L11.65-15 20.7-15Q20-16.65 19.38-18.18 18.75-19.7 18.23-20.98 17.7-22.25 17.3-23.2 16.9-24.15 16.7-24.7L16.7-24.7Q16.65-24.8 16.48-25.4 16.3-26 16.2-26.5L16.2-26.5Q16.1-26 15.9-25.4 15.7-24.8 15.65-24.7L15.65-24.7ZM36.8 0L36.8-36.25 45.9-36.25Q51.4-36.25 55.2-34.6 59-32.95 61.37-30.28 63.75-27.6 64.82-24.28 65.9-20.95 65.9-17.65L65.9-17.65Q65.9-13.6 64.45-10.33 63-7.05 60.5-4.75 58-2.45 54.7-1.23 51.4 0 47.7 0L47.7 0 36.8 0ZM42.25-5.2L46.9-5.2Q49.8-5.2 52.27-6.05 54.75-6.9 56.57-8.53 58.4-10.15 59.42-12.53 60.45-14.9 60.45-18L60.45-18Q60.45-21.3 59.3-23.75 58.15-26.2 56.3-27.83 54.45-29.45 52.12-30.23 49.8-31 47.4-31L47.4-31 42.25-31 42.25-5.2Z" opacity="1" transform="matrix(1,0,0,1,0,0)" fill="#ffffff" class="undefined-text-0" data-fill-palette-color="primary" id="text-0"></path></svg></g></svg></g></svg></g></svg></g><g transform="matrix(1,0,0,1,449.3316474226879,0)"><svg viewBox="0 0 244.43135999999998 244.43135999999998" height="244.43135999999998" width="244.43135999999998"><g data-palette-color="#31c48d"><rect width="66.8112384" height="244.43135999999998" fill="#ffffff" stroke="transparent" data-fill-palette-color="accent" x="0" fill-opacity="1"></rect><rect width="66.8112384" height="244.43135999999998" fill="#ffffff" stroke="transparent" data-fill-palette-color="accent" x="81.47711999999999" fill-opacity="0.75"></rect><rect width="66.8112384" height="244.43135999999998" fill="#ffffff" stroke="transparent" data-fill-palette-color="accent" x="162.95423999999997" fill-opacity="0.5"></rect></g></svg></g></svg></g><defs></defs></svg><rect width="395.52" height="139.35232993519563" fill="none" stroke="none" visibility="hidden"></rect></g></svg></g></svg>